<svg width="41.217" height="40.186" version="1.1" viewBox="0 0 10.905 10.633" xmlns="http://www.w3.org/2000/svg">
  <g transform="translate(-58.024 -110.18)">
    <path transform="matrix(.26458 0 0 .26458 -32.908 63.37)" d="m334.38 0.49153-31.823-19.213-5.9037 36.701-21.257-30.496-20.321 31.127-7.0152-36.505-31.225 20.171 8.4392-36.202-36.729 5.7265 22.434-29.64-35.883-9.7076 32.55-17.952-28.832-23.463 37.038-3.161-16.796-33.162 35.122 12.177-1.8559-37.127 27.132 25.41 13.405-34.672 14.452 34.249 26.349-26.222-0.72789 37.166 34.736-13.238-15.782 33.657 37.117 2.035-28.107 24.328 33.08 16.956-35.572 10.793 23.324 28.945-36.886-4.6088z" fill="#373e48" stroke-linecap="round" stroke-linejoin="round" stroke-width=".79375"/>
    <g transform="translate(34.888 48.323)" fill="#dbdee3" stroke-linecap="round" stroke-linejoin="round">
      <g stroke-width=".28617">
        <circle cx="7.0686" cy="80.765" r="1.0855"/>
        <circle cx="7.0686" cy="86.878" r="1.0855"/>
        <circle cx="7.0686" cy="83.822" r="1.0855"/>
      </g>
      <g stroke-width=".22754">
        <rect x="9.4157" y="80.164" width="7.8084" height="1.2026"/>
        <rect x="9.4157" y="83.22" width="7.8084" height="1.2026"/>
        <rect x="9.4157" y="86.277" width="7.8084" height="1.2026"/>
      </g>
    </g>
    <g transform="translate(128.18 -3.693)" fill="none" stroke="#dbdee3">
      <g stroke-width=".42093">
        <path d="m8.0578 99.286h7.5767"/>
        <path d="m8.0578 100.55h7.5767"/>
        <path d="m8.0578 101.81h7.5767"/>
        <path d="m8.0578 103.07h5.0511"/>
      </g>
      <path d="m11.906 97.783h5.2917v7.9375h-10.583v-9.525h3.9687z" stroke-width=".79375"/>
      <path d="m11.906 97.783h-5.2917" stroke-width=".79375"/>
    </g>
    <path d="m97.369 141.25 8e-3 0.10284 0.31161 1.5513-1.8056 0.74724-0.87643-1.3167-0.0667-0.0786s-1.728 1.6757-1.8588 1.8588l0.0785 0.0667 1.3167 0.87695-0.74776 1.8051-1.5508-0.31161-0.10283-8e-3v2.6288l0.10283-8e-3 1.5508-0.31109 0.74776 1.8051-1.3167 0.87643-0.0785 0.0667 1.8588 1.8588 0.0667-0.0785 0.87643-1.3167 1.8056 0.74775-0.31161 1.5508-8e-3 0.10284h2.6288l-8e-3 -0.10284-0.31161-1.5508 1.8056-0.74775 0.87643 1.3167 0.0667 0.0785 1.8588-1.8588-0.0786-0.0667-1.3167-0.87643 0.74776-1.8051 1.5508 0.31109 0.10283 8e-3v-2.6288l-0.10283 8e-3 -1.5508 0.31161-0.74776-1.8051 1.3167-0.87695 0.0786-0.0667-1.8588-1.8588-0.0667 0.0786-0.87643 1.3167-1.8056-0.74724 0.31161-1.5513 8e-3 -0.10284zm1.3146 4.0261a2.5822 2.5822 0 0 1 2.5817 2.5823 2.5822 2.5822 0 0 1-2.5817 2.5823 2.5822 2.5822 0 0 1-2.5823-2.5823 2.5822 2.5822 0 0 1 2.5823-2.5823z" fill="#dbdee3" stroke="#dbdee3" stroke-linejoin="round" stroke-width=".26458"/>
    <g transform="translate(-175.29 80.377)">
      <path d="m278.55 13.065a6.93 6.93 0 0 1-6.93 6.93 6.93 6.93 0 0 1-6.93-6.93 6.93 6.93 0 0 1 6.93-6.93 6.93 6.93 0 0 1 6.93 6.93z" fill="#dbdee3" stroke-linecap="round" stroke-linejoin="round" stroke-width=".077"/>
      <path d="m236.45 10.046c0.0523 0.65539 0.0557 1.0341-0.25667 1.54l-0.77001 1.2833c-0.22102 0.73339-0.11346 1.0842 0 1.2833l2.8234 1.54c0.27752 0.27238 0.33033 0.52637 0.25667 0.77h-7.7c-0.0833-0.25404-4e-3 -0.5106 0.25667-0.77l2.8234-1.54c0.19367-0.46844 0.1472-0.88647 0-1.2833l-0.77001-1.2833c-0.19952-0.40384-0.3584-0.55124-0.25667-1.54 0-0.51334 0.30273-0.82626 0.51334-1.0267 0.71799-0.68321 1.7582-0.79071 2.5667 0 0.25567 0.25005 0.51334 0.51334 0.51334 1.0267z" fill="#dbdee3"/>
      <g transform="translate(228.4 -28.021)" fill="none" stroke="#dbdee3" stroke-linecap="round" stroke-width=".78968">
        <path d="m7.5386 63.548 1.7309 2.0472 3.9164-5.151"/>
        <rect x="5.3045" y="58.217" width="10.116" height="9.8429" stroke-linejoin="round"/>
      </g>
    </g>
  </g>
</svg>
