<svg width="198.88" height="198.11" version="1.1" viewBox="0 0 52.621 52.416" xmlns="http://www.w3.org/2000/svg">
  <g transform="translate(-13.419 -15.878)">
    <path transform="matrix(.26458 0 0 .26458 -32.908 63.37)" d="m334.38 0.49153-31.823-19.213-5.9037 36.701-21.257-30.496-20.321 31.127-7.0152-36.505-31.225 20.171 8.4392-36.202-36.729 5.7265 22.434-29.64-35.883-9.7076 32.55-17.952-28.832-23.463 37.038-3.161-16.796-33.162 35.122 12.177-1.8559-37.127 27.132 25.41 13.405-34.672 14.452 34.249 26.349-26.222-0.72789 37.166 34.736-13.238-15.782 33.657 37.117 2.035-28.107 24.328 33.08 16.956-35.572 10.793 23.324 28.945-36.886-4.6088z" fill="#373e48" stroke-linecap="round" stroke-linejoin="round" stroke-width=".79375"/>
  </g>
</svg>
