<svg width="43" height="39" version="1.1" viewBox="0 0 11.377 10.319" xmlns="http://www.w3.org/2000/svg">
  <g transform="translate(-134.4 -92.106)">
    <path transform="matrix(.26458 0 0 .26458 -32.908 63.37)" d="m334.38 0.49153-31.823-19.213-5.9037 36.701-21.257-30.496-20.321 31.127-7.0152-36.505-31.225 20.171 8.4392-36.202-36.729 5.7265 22.434-29.64-35.883-9.7076 32.55-17.952-28.832-23.463 37.038-3.161-16.796-33.162 35.122 12.177-1.8559-37.127 27.132 25.41 13.405-34.672 14.452 34.249 26.349-26.222-0.72789 37.166 34.736-13.238-15.782 33.657 37.117 2.035-28.107 24.328 33.08 16.956-35.572 10.793 23.324 28.945-36.886-4.6088z" fill="#373e48" stroke-linecap="round" stroke-linejoin="round" stroke-width=".79375"/>
    <g transform="translate(34.888 48.323)" fill="#dbdee3" stroke-linecap="round" stroke-linejoin="round">
      <g stroke-width=".28617">
        <circle cx="7.0686" cy="80.765" r="1.0855"/>
        <circle cx="7.0686" cy="86.878" r="1.0855"/>
        <circle cx="7.0686" cy="83.822" r="1.0855"/>
      </g>
      <g stroke-width=".22754">
        <rect x="9.4157" y="80.164" width="7.8084" height="1.2026"/>
        <rect x="9.4157" y="83.22" width="7.8084" height="1.2026"/>
        <rect x="9.4157" y="86.277" width="7.8084" height="1.2026"/>
      </g>
    </g>
    <g transform="translate(128.18 -3.693)" fill="none" stroke="#dbdee3">
      <g stroke-width=".42093">
        <path d="m8.0578 99.286h7.5767"/>
        <path d="m8.0578 100.55h7.5767"/>
        <path d="m8.0578 101.81h7.5767"/>
        <path d="m8.0578 103.07h5.0511"/>
      </g>
      <path d="m11.906 97.783h5.2917v7.9375h-10.583v-9.525h3.9687z" stroke-width=".79375"/>
      <path d="m11.906 97.783h-5.2917" stroke-width=".79375"/>
    </g>
  </g>
</svg>
